<?xml version="1.0" encoding="iso-8859-1"?>
<!-- Generator: Adobe Illustrator 19.0.0, SVG Export Plug-In . SVG Version: 6.00 Build 0)  -->
<svg version="1.1" id="Layer_1" xmlns="http://www.w3.org/2000/svg" xmlns:xlink="http://www.w3.org/1999/xlink" x="0px" y="0px"
	 viewBox="0 0 512.001 512.001" style="enable-background:new 0 0 512.001 512.001;" xml:space="preserve">
<circle style="fill:#36A9E1;" cx="59.274" cy="119.48" r="39.862"/>
<circle style="fill:#A5C6E3;" cx="63.263" cy="115.493" r="19.936"/>
<g>
	<circle style="fill:#36A9E1;" cx="423.556" cy="69.143" r="58.309"/>
	<circle style="fill:#36A9E1;" cx="434.021" cy="446.389" r="55.81"/>
	<circle style="fill:#36A9E1;" cx="98.667" cy="446.389" r="39.862"/>
</g>
<circle style="fill:#1D71B8;" cx="234.692" cy="255.024" r="87.708"/>
<circle style="fill:#36A9E1;" cx="242.666" cy="239.075" r="55.81"/>
<circle style="fill:#A5C6E3;" cx="262.592" cy="227.114" r="35.885"/>
<path style="fill:#1D1D1B;" d="M432.57,381.771c-16.016,0-30.69,5.824-42.044,15.45l-88.57-78.729
	c14.872-16.598,23.932-38.505,23.932-62.492c0-22.627-8.058-43.407-21.455-59.622l79.346-79.346
	c10.921,8.277,24.518,13.198,39.245,13.198c35.905,0,65.115-29.21,65.115-65.115C488.141,29.21,458.931,0,423.026,0
	c-35.904,0-65.114,29.21-65.114,65.115c0,15.53,5.472,29.801,14.58,41.004l-79.028,79.028
	c-16.45-14.257-37.897-22.893-61.323-22.893c-26.373,0-50.232,10.951-67.284,28.538l-63.029-48.484
	c2.909-6.033,4.542-12.793,4.542-19.928c0-25.379-20.647-46.026-46.027-46.026c-25.379,0-46.026,20.647-46.026,46.026
	s20.648,46.027,46.026,46.027c12.599,0,24.028-5.092,32.348-13.322l62.209,47.854c-10.404,15.098-16.507,33.38-16.507,53.062
	c0,27.838,12.2,52.875,31.53,70.06l-52.564,78.848c-5.755-2.593-12.128-4.048-18.838-4.048c-25.379,0-46.027,20.647-46.027,46.026
	s20.648,46.026,46.027,46.026s46.026-20.648,46.026-46.026c0-13.03-5.451-24.804-14.183-33.186l52.139-78.209
	c14.404,9.027,31.421,14.256,49.638,14.256c22.046,0,42.334-7.653,58.36-20.436l89.352,79.423
	c-7.787,10.73-12.396,23.91-12.396,38.152c0,35.905,29.21,65.115,65.114,65.115c35.905,0,65.115-29.21,65.115-65.115
	C497.685,410.981,468.475,381.771,432.57,381.771z M60.344,152.709c-16.722,0-30.328-13.606-30.328-30.329
	s13.606-30.328,30.328-30.328c16.723,0,30.329,13.606,30.329,30.328C90.672,139.103,77.067,152.709,60.344,152.709z M98.521,477.214
	c-16.722,0-30.328-13.606-30.328-30.328c0-16.723,13.606-30.328,30.328-30.328s30.328,13.605,30.328,30.328
	C128.85,463.608,115.244,477.214,98.521,477.214z M423.026,15.698c27.249,0,49.417,22.168,49.417,49.417
	s-22.168,49.417-49.417,49.417c-27.248,0-49.416-22.168-49.416-49.417S395.778,15.698,423.026,15.698z M154.092,256.001
	c0-43.037,35.013-78.05,78.05-78.05s78.05,35.013,78.05,78.05s-35.013,78.05-78.05,78.05
	C189.105,334.049,154.092,299.037,154.092,256.001z M432.57,496.302c-27.248,0-49.416-22.168-49.416-49.417
	s22.168-49.417,49.416-49.417s49.417,22.168,49.417,49.417S459.818,496.302,432.57,496.302z"/>
<g>
	<circle style="fill:#A5C6E3;" cx="438.008" cy="51.708" r="27.907"/>
	<circle style="fill:#A5C6E3;" cx="445.982" cy="434.427" r="27.907"/>
	<circle style="fill:#A5C6E3;" cx="107.112" cy="438.415" r="15.947"/>
</g>
<g>
</g>
<g>
</g>
<g>
</g>
<g>
</g>
<g>
</g>
<g>
</g>
<g>
</g>
<g>
</g>
<g>
</g>
<g>
</g>
<g>
</g>
<g>
</g>
<g>
</g>
<g>
</g>
<g>
</g>
</svg>
