<?xml version="1.0" encoding="UTF-8" standalone="no"?>
<!-- Created with Inkscape (http://www.inkscape.org/) -->

<svg
   xmlns:dc="http://purl.org/dc/elements/1.1/"
   xmlns:cc="http://creativecommons.org/ns#"
   xmlns:rdf="http://www.w3.org/1999/02/22-rdf-syntax-ns#"
   xmlns:svg="http://www.w3.org/2000/svg"
   xmlns="http://www.w3.org/2000/svg"
   xmlns:xlink="http://www.w3.org/1999/xlink"
   xmlns:sodipodi="http://sodipodi.sourceforge.net/DTD/sodipodi-0.dtd"
   xmlns:inkscape="http://www.inkscape.org/namespaces/inkscape"
   width="210mm"
   height="297mm"
   viewBox="0 0 210 297"
   version="1.1"
   id="svg16475"
   inkscape:version="0.92.1 r15371"
   sodipodi:docname="bottledwater-1111.svg">
  <defs
     id="defs16469">
    <linearGradient
       inkscape:collect="always"
       id="linearGradient17185">
      <stop
         style="stop-color:#a8bfe3;stop-opacity:1;"
         offset="0"
         id="stop17181" />
      <stop
         style="stop-color:#a8bfe3;stop-opacity:0;"
         offset="1"
         id="stop17183" />
    </linearGradient>
    <linearGradient
       id="linearGradient11719">
      <stop
         offset="0"
         style="stop-color:black;stop-opacity:0"
         id="stop11721" />
      <stop
         offset="0.6"
         style="stop-color:black;stop-opacity:0"
         id="stop11723" />
      <stop
         offset="1"
         style="stop-color:black"
         id="stop11725" />
    </linearGradient>
    <linearGradient
       id="linearGradient899">
      <stop
         offset="0"
         style="stop-color:#ffffff;stop-opacity:0"
         id="stop900" />
      <stop
         offset="1"
         style="stop-color:#ffffff"
         id="stop901" />
    </linearGradient>
    <linearGradient
       inkscape:collect="always"
       x1="389.49"
       y1="540.44"
       x2="426.71"
       gradientUnits="userSpaceOnUse"
       xlink:href="#linearGradient899"
       y2="550.16"
       id="linearGradient2771"
       gradientTransform="matrix(6.534,-1.8166e-6,5.6386e-6,5.8067,-2365.7,-2646.2)" />
    <linearGradient
       inkscape:collect="always"
       x1="342.99"
       y1="512.85"
       gradientTransform="matrix(6.534,-1.8166e-6,1.8166e-6,6.534,-2380.2,-3041.8)"
       x2="394.65"
       gradientUnits="userSpaceOnUse"
       y2="526.69"
       id="linearGradient2810">
      <stop
         offset="0"
         style="stop-color:#ffffff"
         id="stop866" />
      <stop
         offset="1"
         style="stop-color:#ffffff;stop-opacity:0"
         id="stop868" />
    </linearGradient>
    <linearGradient
       inkscape:collect="always"
       x1="390.41"
       y1="509.81"
       gradientTransform="matrix(6.534,-1.8166e-6,1.8166e-6,6.534,-2378.7,-3041.8)"
       x2="356.92"
       gradientUnits="userSpaceOnUse"
       xlink:href="#linearGradient899"
       y2="509.81"
       id="linearGradient2813" />
    <radialGradient
       inkscape:collect="always"
       r="12.74"
       gradientTransform="matrix(26.256,-1.1729e-5,3.0166e-5,113.25,-10147,-58235)"
       cx="399.5"
       cy="515.14"
       gradientUnits="userSpaceOnUse"
       xlink:href="#linearGradient11719"
       id="radialGradient2816" />
    <radialGradient
       inkscape:collect="always"
       r="12.74"
       gradientTransform="matrix(11.528,2.2962e-6,1.1466e-5,47.894,-4333.1,-24440)"
       cx="390.02"
       cy="517.03"
       gradientUnits="userSpaceOnUse"
       xlink:href="#linearGradient11719"
       id="radialGradient2819" />
    <radialGradient
       inkscape:collect="always"
       r="12.74"
       gradientTransform="matrix(24.027,-1.3483e-5,1.5294e-5,31.012,-9232.1,-15709)"
       cx="391.95"
       cy="519.03"
       gradientUnits="userSpaceOnUse"
       xlink:href="#linearGradient11719"
       id="radialGradient2822" />
    <radialGradient
       inkscape:collect="always"
       r="12.74"
       gradientTransform="matrix(18.971,-5.5066e-7,1.7519e-5,37.327,-7280.4,-19004)"
       cx="393.53"
       cy="515.03"
       gradientUnits="userSpaceOnUse"
       xlink:href="#linearGradient11719"
       id="radialGradient2826" />
    <linearGradient
       inkscape:collect="always"
       x1="125.06"
       y1="61.667"
       x2="133.63"
       gradientUnits="userSpaceOnUse"
       y2="50.827"
       id="linearGradient3627">
      <stop
         offset="0"
         style="stop-color:#757575"
         id="stop3621" />
      <stop
         offset="1"
         style="stop-color:#ffffff"
         id="stop3623" />
    </linearGradient>
    <radialGradient
       inkscape:collect="always"
       r="3.9233"
       gradientTransform="matrix(8.8104,-5.4518e-6,7.3585e-6,23.9,-3268.3,-11444)"
       cx="391.97"
       cy="483.77"
       gradientUnits="userSpaceOnUse"
       xlink:href="#linearGradient11719"
       id="radialGradient3476" />
    <radialGradient
       inkscape:collect="always"
       r="3.9233"
       gradientTransform="matrix(13.734,-0.28405,0.4942,23.895,-5437.2,-11330)"
       cx="391.01"
       cy="483.32"
       gradientUnits="userSpaceOnUse"
       xlink:href="#linearGradient11719"
       id="radialGradient3478" />
    <radialGradient
       inkscape:collect="always"
       r="17.922"
       gradientTransform="matrix(-6.8079e-7,-2.1047,2.8519,6.696e-7,-740.37,1204.5)"
       cx="521.02"
       cy="324.51"
       gradientUnits="userSpaceOnUse"
       xlink:href="#linearGradient11719"
       id="radialGradient3480" />
    <linearGradient
       inkscape:collect="always"
       x1="86.335"
       y1="50.264"
       x2="99.731"
       gradientUnits="userSpaceOnUse"
       y2="62.369"
       id="linearGradient3488">
      <stop
         offset="0"
         style="stop-color:#757575"
         id="stop3492" />
      <stop
         offset="1"
         style="stop-color:#d6d6d6"
         id="stop3494" />
    </linearGradient>
    <linearGradient
       inkscape:collect="always"
       x1="86.335"
       y1="50.264"
       x2="99.731"
       gradientUnits="userSpaceOnUse"
       y2="62.369"
       id="linearGradient3502">
      <stop
         offset="0"
         style="stop-color:#000000;stop-opacity:.24324"
         id="stop3506" />
      <stop
         offset="1"
         style="stop-color:#000000;stop-opacity:0"
         id="stop3508" />
    </linearGradient>
    <linearGradient
       inkscape:collect="always"
       x1="53.427"
       y1="31.544"
       gradientTransform="scale(1,0.5903)"
       x2="112.55"
       gradientUnits="userSpaceOnUse"
       y2="30.885"
       id="linearGradient3713">
      <stop
         offset="0"
         style="stop-color:#505050"
         id="stop3717" />
      <stop
         offset=".50557"
         style="stop-color:#7f7f7f"
         id="stop3719" />
      <stop
         offset="1"
         style="stop-color:#1a1a1a"
         id="stop3721" />
    </linearGradient>
    <linearGradient
       inkscape:collect="always"
       x1="107.06"
       y1="298.25"
       x2="267.64"
       gradientUnits="userSpaceOnUse"
       y2="298.25"
       id="linearGradient3296">
      <stop
         offset="0"
         style="stop-color:#7a7a7a"
         id="stop3300" />
      <stop
         offset=".80392"
         style="stop-color:#d3d3d3"
         id="stop3304" />
      <stop
         offset="1"
         style="stop-color:#afafaf"
         id="stop3302" />
    </linearGradient>
    <radialGradient
       inkscape:collect="always"
       xlink:href="#linearGradient17185"
       id="radialGradient17187"
       cx="83.243048"
       cy="250.60063"
       fx="83.243048"
       fy="250.60063"
       r="82.738447"
       gradientTransform="matrix(1,0,0,3.022786,0,-506.91145)"
       gradientUnits="userSpaceOnUse" />
    <radialGradient
       inkscape:collect="always"
       xlink:href="#linearGradient17185"
       id="radialGradient17289"
       gradientUnits="userSpaceOnUse"
       gradientTransform="matrix(1,0,0,3.022786,0,-506.91145)"
       cx="83.243048"
       cy="250.60063"
       fx="83.243048"
       fy="250.60063"
       r="82.738447" />
    <radialGradient
       inkscape:collect="always"
       xlink:href="#linearGradient17185"
       id="radialGradient17291"
       gradientUnits="userSpaceOnUse"
       gradientTransform="matrix(1,0,0,3.022786,0,-506.91145)"
       cx="83.243048"
       cy="250.60063"
       fx="83.243048"
       fy="250.60063"
       r="82.738447" />
    <radialGradient
       inkscape:collect="always"
       xlink:href="#linearGradient17185"
       id="radialGradient17293"
       gradientUnits="userSpaceOnUse"
       gradientTransform="matrix(1,0,0,3.022786,0,-506.91145)"
       cx="83.243048"
       cy="250.60063"
       fx="83.243048"
       fy="250.60063"
       r="82.738447" />
  </defs>
  <sodipodi:namedview
     id="base"
     pagecolor="#ffffff"
     bordercolor="#666666"
     borderopacity="1.0"
     inkscape:pageopacity="0.0"
     inkscape:pageshadow="2"
     inkscape:zoom="0.23325825"
     inkscape:cx="-131.01875"
     inkscape:cy="787.39368"
     inkscape:document-units="mm"
     inkscape:current-layer="g17179"
     showgrid="false"
     inkscape:snap-global="false"
     inkscape:window-width="1366"
     inkscape:window-height="706"
     inkscape:window-x="-8"
     inkscape:window-y="-8"
     inkscape:window-maximized="1" />
  <metadata
     id="metadata16472">
    <rdf:RDF>
      <cc:Work
         rdf:about="">
        <dc:format>image/svg+xml</dc:format>
        <dc:type
           rdf:resource="http://purl.org/dc/dcmitype/StillImage" />
        <dc:title></dc:title>
      </cc:Work>
    </rdf:RDF>
  </metadata>
  <g
     inkscape:label="Layer 1"
     inkscape:groupmode="layer"
     id="layer1">
    <g
       id="g17179"
       transform="matrix(0.26458333,0,0,0.26458333,-138.48291,33.392548)">
      <g
         transform="translate(-101.9603,-62.225)"
         inkscape:label="bottle"
         id="bottle">
        <path
           style="fill:none;stroke:none;stroke-width:1px;stroke-linecap:butt;stroke-linejoin:miter;stroke-opacity:1"
           d="m 372.75867,287.07764 c 71.59222,27.98605 135.37706,16.93517 197.98504,0"
           id="path17198"
           inkscape:connector-curvature="0"
           sodipodi:nodetypes="cc" />
      </g>
      <g
         inkscape:label="cut-outs"
         style="display:none"
         id="layer2">
        <ellipse
           transform="matrix(1,0,0,1.2522,20.775,-127.22)"
           style="display:inline;fill:#00ff00;fill-opacity:0.34512999"
           id="path2487"
           cx="-58.429928"
           cy="386.93594"
           rx="59.295555"
           ry="99.547287" />
        <ellipse
           transform="matrix(1,0,0,1.2522,265.18,-127.22)"
           style="display:inline;fill:#00ff00;fill-opacity:0.34512999"
           id="path3259"
           cx="-58.429928"
           cy="386.93594"
           rx="59.295555"
           ry="99.547287" />
        <path
           d="m 63.405,101.48 c 0,2.23 -0.113,4.35 -0.329,6.37 -4.397,41.24 -51.452,42.39 -52.356,117.02 -10.123,6.31 -21.205,1.9 -32.78,1.9 -46.76,0 -84.71,-45.65 -84.71,-101.91 0,-56.259 37.95,-101.92 84.71,-101.92 46.76,0.002 85.465,22.287 85.465,78.54 z"
           transform="matrix(1,0,0,1.0346,-5.2944,-51.973)"
           sodipodi:nodetypes="cscsssc"
           style="fill:#00ff00;fill-opacity:0.34512999"
           id="path3267"
           inkscape:connector-curvature="0" />
        <path
           d="m 108.54,53.026 c 0,49.324 54.44,46.659 55.44,127.65 10.65,6.53 22.31,1.98 34.49,1.98 49.21,0 89.14,-47.24 89.14,-105.45 0,-58.207 -39.93,-105.45 -89.14,-105.45 -49.2,0.003 -89.93,23.06 -89.93,81.266 z"
           style="fill:#00ff00;fill-opacity:0.34512999"
           sodipodi:nodetypes="ccsssc"
           id="path3723"
           inkscape:connector-curvature="0" />
      </g>
      <g
         id="g17287"
         transform="matrix(2.3842225,0,0,1.8615552,698.57525,-25.07625)">
        <g
           id="liquid"
           inkscape:label="liquid">
          <path
             inkscape:connector-curvature="0"
             id="filling"
             style="fill:#4786e7;fill-opacity:1"
             d="m 185.42,119.49 c -8.99,0 -17.7,1.46 -25.85,4.15 -3.99,39.68 -50.38,38.6 -51.67,117.76 l 2.38,98.02 c 16.48,47.79 17.94,96.98 3.6,147.65 l 0.13,5.17 c 0.7,28.84 7.93,53.19 29.11,53.19 13.99,0 19.83,-9.14 20.16,-12.6 0,12.67 6.89,26.4 22.73,26.4 15.66,0 22.17,-14.1 22.17,-26.4 0.81,2.19 6.53,10.99 20.52,10.99 16.23,0 26.99,-25.29 27.95,-51.58 l 0.46,-12.75 C 250,441.01 242.87,402.55 262.07,343.41 l 3.66,-100.36 c 0.36,-76.38 -53.42,-84.65 -54.99,-119.58 -7.98,-2.58 -16.51,-3.98 -25.32,-3.98 z"
             sodipodi:nodetypes="cccccssczcssccccc"
             transform="translate(-102.09,-60.975)"
             inkscape:label="filling" />
          <ellipse
             ry="3.2517133"
             rx="3.0274572"
             cy="4.3595386"
             cx="162.92206"
             id="path3516"
             style="fill:none"
             transform="translate(0.03198,-0.60782)" />
          <ellipse
             ry="3.2517133"
             rx="3.0274572"
             cy="4.3595386"
             cx="162.92206"
             id="path3532"
             style="fill:none"
             transform="translate(-159.39,493.09)" />
        </g>
        <g
           style="fill:url(#radialGradient17187);fill-opacity:1"
           transform="translate(0.36,1.124)"
           id="foam"
           inkscape:label="foam">
          <path
             inkscape:connector-curvature="0"
             id="path3432"
             sodipodi:nodetypes="cccccssczcssccccc"
             style="fill:url(#radialGradient17289);fill-opacity:1"
             inkscape:label="filling"
             d="m 83.338,58.513 c -8.267,0 -17.607,1.562 -25.172,3.848 C 56.122,97.188 6.751,102.2 5.478,181.751 l 2.4417,94.52 c 17.7,52.67 16.921,101.87 3.8423,148.77 l 0.161,6.22 c 0.745,28.84 7.93,53.19 29.109,53.19 13.994,0 19.828,-9.13 20.164,-12.59 0,12.67 6.882,26.39 22.724,26.39 15.665,0 22.18,-14.09 22.18,-26.39 0.8,2.18 6.52,10.98 20.51,10.98 16.23,0 27.06,-25.28 27.95,-51.58 l 0.49,-14.54 c -6.5,-38.54 -15.03,-75.43 4.57,-135.41 l 3.36,-99.56 c 0.04,-82.708 -47.69,-77.74 -53.77,-119.6 -7.67,-2.362 -17.464,-3.637 -25.872,-3.637 z" />
          <ellipse
             ry="3.2517133"
             rx="3.0274572"
             cy="4.3595386"
             cx="162.92206"
             id="path3518"
             style="fill:url(#radialGradient17291);fill-opacity:1"
             transform="translate(0.03198,-0.60782)" />
          <ellipse
             ry="3.2517133"
             rx="3.0274572"
             cy="4.3595386"
             cx="162.92206"
             id="path3530"
             style="fill:url(#radialGradient17293);fill-opacity:1"
             transform="translate(-159.39,493.09)" />
        </g>
        <path
           inkscape:connector-curvature="0"
           id="path11823"
           sodipodi:nodetypes="cccccscscscccsccsc"
           style="fill:#ffffff;fill-opacity:0.5"
           d="m 159.7,102.86 v 17.36 c -0.48,37.09 -56.68,47.69 -56.59,122.89 l 2.43,85.09 c 28.58,74.89 21.02,123.64 4.75,166.09 0.79,29.23 8.34,53.9 30.63,53.9 14.72,0 20.88,-9.35 21.23,-12.86 0,12.84 7.22,26.75 23.89,26.75 16.49,0 23.28,-14.28 23.28,-26.75 0.85,2.22 6.92,11.23 21.64,11.23 17.08,0 28.68,-25.61 29.41,-52.27 -10.95,-46.87 -20.58,-94.47 5.25,-162.08 l 3.24,-100.31 c -0.23,-70.44 -56.29,-66.84 -58.31,-111.68 -0.01,-0.03 0.02,-0.2 0,-0.21 v -17.15 c -5.12,4.39 -14.64,7.35 -25.53,7.35 -10.83,0 -20.16,-3 -25.32,-7.35 z"
           transform="translate(-101.9603,-62.225)" />
        <path
           inkscape:connector-curvature="0"
           id="path11817"
           sodipodi:nodetypes="cccscscsscccsc"
           style="fill:url(#radialGradient3476)"
           d="m 159.7,88.859 v 30.541 0.82 c -0.06,0.01 -0.14,-0.02 -0.2,0 -0.04,0.12 0.06,0.29 0,0.4 0,7.08 11.37,12.87 25.52,12.87 14.15,0 25.73,-5.79 25.73,-12.87 -0.06,-0.11 0.04,-0.28 0,-0.4 0,-0.01 -0.2,0.01 -0.2,0 -0.03,-0.01 0.02,-0.2 0,-0.21 V 119.4 88.859 c -5.12,4.387 -14.64,7.351 -25.53,7.351 -10.83,0 -20.16,-3.002 -25.32,-7.351 z"
           transform="translate(-101.9603,-62.225)" />
        <path
           inkscape:connector-curvature="0"
           id="path11819"
           sodipodi:nodetypes="cccccsczcssccccc"
           style="fill:url(#radialGradient2826)"
           d="m 185.43,116.54 c -9.3,0 -18.31,1.43 -26.75,4.07 0.73,50.24 -57.63,42.4 -55.57,121.84 l 2.42,85.04 c 24.79,63.85 23.25,118.34 4.76,166.8 0.83,29.23 8.34,53.9 30.63,53.9 14.72,0 20.86,-9.26 21.21,-12.76 0,12.84 7.24,26.74 23.91,26.74 16.49,0 23.34,-14.28 23.34,-26.74 0.84,2.21 6.86,11.13 21.58,11.13 17.08,0 28.57,-25.62 29.41,-52.27 l 0.11,-3.6 c -18.69,-62.91 -11.83,-112.7 4.94,-157.4 l 3.11,-99.41 c 0.43,-74.65 -57.18,-72.41 -57.77,-113.7 -8.02,-2.36 -16.54,-3.64 -25.33,-3.64 z"
           transform="translate(-101.9603,-62.225)" />
        <path
           inkscape:connector-curvature="0"
           id="path11825"
           sodipodi:nodetypes="csssccccscscsccccc"
           style="fill:url(#radialGradient2822)"
           d="m 210.55,120.01 c 0.02,0.22 0.2,0.39 0.2,0.61 0,7.08 -11.58,12.87 -25.73,12.87 -14.15,0 -25.52,-5.79 -25.52,-12.87 v -0.2 c -1.02,45.73 -56.81,41.31 -57.38,123.35 l 2.73,83.75 c 25.32,62.38 23.38,116.89 5.44,166.77 0.79,29.23 8.34,53.9 30.63,53.9 14.72,0 20.88,-9.35 21.23,-12.86 0,12.84 7.22,26.75 23.89,26.75 16.49,0 23.28,-14.28 23.28,-26.75 0.85,2.22 6.92,11.23 21.64,11.23 17.08,0 28.68,-25.61 29.41,-52.27 l 0.14,-4.34 C 243,432.82 247.45,381.03 265.52,332.55 l 3.01,-94.71 c 0.43,-81.02 -57.9,-73 -57.98,-117.83 z"
           transform="translate(-101.9603,-62.225)" />
        <path
           inkscape:connector-curvature="0"
           id="path11827"
           sodipodi:nodetypes="cccccsczcssccccc"
           style="fill:url(#radialGradient2819)"
           d="m 185.43,116.54 c -9.05,0 -17.82,1.35 -26.06,3.85 -0.94,41.82 -57.34,45.02 -55.6,122.72 l 2.14,82.58 c 15.93,50.48 29.11,102.04 4.38,168.6 0.76,29.23 8.34,53.9 30.63,53.9 14.72,0 20.86,-9.26 21.21,-12.76 0,12.84 7.24,26.74 23.91,26.74 16.49,0 23.34,-14.28 23.34,-26.74 0.84,2.21 6.86,11.13 21.58,11.13 17.08,0 28.54,-25.62 29.41,-52.27 l 0.15,-4.67 c -13.68,-47.27 -17.65,-97.59 5.07,-156.35 l 2.94,-90.82 c 0.1,-83.49 -56.43,-85.16 -57.59,-122.22 -8.07,-2.4 -16.65,-3.69 -25.51,-3.69 z"
           transform="translate(-101.9603,-62.225)" />
        <path
           inkscape:connector-curvature="0"
           id="path11829"
           sodipodi:nodetypes="cccccssczcssccccc"
           style="fill:url(#radialGradient2816)"
           d="m 185.42,119.49 c -9.21,0 -18.13,1.53 -26.45,4.35 -0.06,40.84 -50.76,38.28 -51.73,118.55 l 2.61,96.3 c 13.66,45.76 24.37,92.17 3.94,145.51 l 0.22,8.04 c 0.78,28.84 7.93,53.19 29.11,53.19 13.99,0 19.83,-9.14 20.16,-12.6 0,12.67 6.89,26.4 22.73,26.4 15.66,0 22.17,-14.1 22.17,-26.4 0.81,2.19 6.53,10.99 20.52,10.99 16.23,0 27,-25.29 27.95,-51.58 l 0.47,-13.11 C 246.18,437 243.37,392.24 262.13,340.52 l 3.6,-99.45 c 0.34,-77.3 -53.54,-83.32 -53.88,-117.23 -8.3,-2.82 -17.21,-4.35 -26.43,-4.35 z"
           transform="translate(-101.9603,-62.225)" />
        <path
           inkscape:connector-curvature="0"
           id="path11831"
           sodipodi:nodetypes="ccccccccc"
           style="fill:url(#linearGradient2813)"
           d="m 168.48,130.22 c -13.57,36.48 -46.14,52.89 -45.33,87.67 l 3,133.8 c 4.8,34.05 5.29,65.52 5.36,96.73 5.85,1.85 11.85,3.25 18.17,4.49 l -4.97,-95.82 -2.57,-139.2 c -0.62,-31.93 28.59,-51.06 32.67,-85.42 -2.39,-0.53 -4.39,-1.4 -6.33,-2.25 z"
           transform="translate(-101.9603,-62.225)" />
        <path
           inkscape:connector-curvature="0"
           id="path11833"
           sodipodi:nodetypes="ccccccccc"
           style="fill:url(#linearGradient2810)"
           d="m 173.18,131.85 c -5.78,27.16 -42.85,59.36 -42.06,92.04 l 2.35,127.44 c 7.21,55.17 5.15,107.56 2.96,159.91 6.04,1.84 12.26,3.24 18.78,4.49 l -2.34,-158.98 -1.95,-132.86 c -0.63,-30.93 30.08,-62.59 31.86,-90.4 -3.45,-0.16 -6.69,-0.86 -9.6,-1.64 z"
           transform="translate(-101.9603,-62.225)" />
        <path
           inkscape:connector-curvature="0"
           id="path11835"
           style="fill:url(#linearGradient2771);stroke-width:6.15962458"
           sodipodi:nodetypes="cccccssscscssscscsssccccc"
           d="m 195.43471,168.77131 c -41.29488,2e-5 -75.27165,27.58185 -74.16084,60.79617 l 3.92053,127.16673 c 12.08793,39.65976 11.49991,76.30004 3.39778,111.14024 l 0.91479,28.27863 c 0.32671,12.3102 2.48294,23.34293 6.27267,30.31097 3.78973,6.90997 7.38343,9.58105 15.15889,9.58105 5.42322,0 8.36352,-1.39361 10.19304,-2.72915 1.82952,-1.33554 2.28689,-3.65822 2.02554,-1.27748 0.65339,-4.18082 4.70447,-7.2003 9.47429,-7.0261 4.70448,0.17419 8.4942,3.54208 8.69023,7.78097 0,4.18082 1.30681,8.47778 3.72439,11.265 2.35224,2.72915 5.2272,4.35502 10.97712,4.35502 5.61924,0 8.10216,-1.56781 10.4544,-4.35503 2.2869,-2.78721 3.65903,-7.20031 3.65903,-11.265 -0.19603,-4.00662 3.00563,-7.54871 7.44875,-8.30358 4.44312,-0.69681 8.8209,1.56781 10.32372,5.40023 -0.71874,-1.62588 0.39204,0.63873 2.41759,1.97428 2.02554,1.33554 5.16186,2.72914 10.65042,2.72914 3.98574,0 8.36352,-2.78722 12.67595,-9.98753 4.24709,-7.20031 7.18738,-17.71043 7.51407,-28.45283 l 1.11075,-35.47894 c -8.16755,-44.88578 -3.07105,-72.23534 3.00554,-98.19129 l 4.05095,-132.91537 c 1.17609,-33.27239 -32.60472,-60.79614 -73.8996,-60.79613 z"
           transform="translate(-101.9603,-62.225)" />
        <path
           inkscape:connector-curvature="0"
           id="path11837"
           sodipodi:nodetypes="csssc"
           style="fill:url(#radialGradient3480)"
           d="m 185.1,107.91 c 14.15,0 25.63,5.7 25.63,12.78 0,7.08 -11.48,12.85 -25.63,12.85 -14.15,0 -25.63,-5.77 -25.63,-12.85 0,-7.08 11.48,-12.78 25.63,-12.78 z"
           transform="translate(-101.9603,-62.225)" />
        <path
           inkscape:connector-curvature="0"
           id="rect3649"
           sodipodi:nodetypes="csccscc"
           style="fill:url(#linearGradient3296);stroke-width:8;stroke-linecap:round;stroke-linejoin:round"
           d="m 110.36,326.84 c 0.26,16.21 32.02,29.35 76.09,29.35 44.24,0 79.17,-13.45 79.17,-29.74 l 2.02,-85.29 c -2.78,15.38 -38.09,27.56 -81.22,27.56 -43.93,0 -77.75,-12.63 -79.36,-28.41 z"
           transform="translate(-101.9603,-62.225)" />
        <path
           inkscape:connector-curvature="0"
           id="path3654"
           sodipodi:nodetypes="ccsccscc"
           style="fill:#000000"
           d="m 110.13,320.84 h 0.19 c 0.26,16.21 32.04,29.35 76.13,29.35 44.25,0 78.57,-13.45 78.57,-29.74 v 2 c 0,16.29 -34.32,29.74 -78.57,29.74 -44.09,0 -75.87,-13.14 -76.13,-29.35 h -0.19"
           transform="translate(-101.9603,-62.225)" />
        <path
           inkscape:connector-curvature="0"
           id="path3658"
           sodipodi:nodetypes="ccsccsc"
           style="fill:#2fba2c;fill-opacity:1"
           d="m 267.88,247.16 c -0.08,2.52 0,0.36 0,2 -2.79,15.38 -38.14,27.56 -81.34,27.56 -43.98,0 -77.85,-12.63 -79.46,-28.41 -1.61,-15.77 -1.61,-17.77 0,-2 1.61,15.78 35.48,28.41 79.46,28.41 43.2,0 78.55,-12.18 81.34,-27.56 z"
           transform="translate(-101.9603,-62.225)" />
        <path
           inkscape:connector-curvature="0"
           id="path11851"
           sodipodi:nodetypes="cccscscsscccsc"
           style="fill:url(#radialGradient3478)"
           d="m 159.7,88.859 v 30.541 0.82 c -0.06,0.01 -0.14,-0.02 -0.2,0 -0.04,0.12 0.06,0.29 0,0.4 0,7.08 11.37,12.87 25.52,12.87 14.15,0 25.73,-5.79 25.73,-12.87 -0.06,-0.11 0.04,-0.28 0,-0.4 0,-0.01 -0.2,0.01 -0.2,0 -0.03,-0.01 0.02,-0.2 0,-0.21 V 119.4 88.859 c -5.12,4.387 -14.64,7.351 -25.53,7.351 -10.83,0 -20.16,-3.002 -25.32,-7.351 z"
           transform="translate(-101.9603,-62.225)" />
        <ellipse
           ry="11.517025"
           rx="30.712067"
           cy="57.451534"
           cx="107.10834"
           id="path3442"
           style="fill:url(#linearGradient3502);stroke:url(#linearGradient3488);stroke-width:1.09730005;stroke-linecap:round;stroke-linejoin:round"
           transform="matrix(0.81257,0,0,0.59283,-4.2132952,-7.5379955)" />
        <ellipse
           ry="3.2517133"
           rx="3.0274572"
           cy="4.3595386"
           cx="162.92206"
           id="path3512"
           style="fill:none"
           transform="translate(0.15970481,-1.8579955)" />
        <ellipse
           ry="3.2517133"
           rx="3.0274572"
           cy="4.3595386"
           cx="162.92206"
           id="path3514"
           style="fill:none"
           transform="translate(0.15970481,-1.8579955)" />
        <ellipse
           ry="3.2517133"
           rx="3.0274572"
           cy="4.3595386"
           cx="162.92206"
           id="path3528"
           style="fill:none"
           transform="translate(-159.2673,491.835)" />
        <path
           inkscape:connector-curvature="0"
           id="path3306"
           sodipodi:nodetypes="czzc"
           style="fill:none;stroke:#ffffff;stroke-width:2.5999999"
           d="m 136.24,335.62 c 6.18,-3.89 17.25,-7.22 26.98,-7.28 9.74,-0.05 22.84,7.65 34.03,7.28 11.19,-0.37 35.26,-7.34 40.36,-13.85"
           transform="translate(-101.9603,-62.225)" />
        <g
           id="text17193"
           style="font-style:normal;font-variant:normal;font-weight:normal;font-stretch:normal;font-size:40px;line-height:1.25;font-family:'OCR A Extended';-inkscape-font-specification:'OCR A Extended';letter-spacing:0px;word-spacing:0px;fill:#263f1f;fill-opacity:1;stroke:none"
           transform="rotate(-6.3,-122.14118,3494.888)"
           aria-label="WATER">
          <path
             inkscape:connector-curvature="0"
             id="path17203"
             d="m 382.17495,291.0183 c 0.14263,-8.3379 0.28525,-16.6758 0.42788,-25.0137 -4.54999,0.60286 -2.91888,-6.28298 0.69792,-3.29415 2.39281,0.62908 4.73941,1.43236 7.11358,2.13173 -0.0284,3.12194 -1.95626,3.22004 -4.04597,2.71127 -0.28106,5.99527 -0.20529,12.06026 -0.35962,18.08187 3.30946,-5.18266 6.61891,-10.36533 9.92837,-15.54799 -4.54422,0.59625 -2.8837,-6.27835 0.7166,-3.28843 2.59049,1.42613 8.73989,1.08978 8.7505,3.96136 -0.0458,3.84275 -5.29227,-0.84723 -3.71473,4.0612 -0.004,4.64227 -0.70327,12.06498 -0.12676,15.02698 3.24188,-5.02028 6.48375,-10.04055 9.72562,-15.06082 -4.5384,0.58965 -2.84855,-6.27368 0.73527,-3.28271 2.80237,0.94602 9.11686,1.3351 5.36934,5.16051 -4.40631,-2.40675 -5.32502,4.8656 -7.8889,7.21618 -2.77872,4.31734 -5.55744,8.63468 -8.33616,12.95203 -3.40931,0.0356 -4.15766,-2.38514 -3.63492,-5.23177 0.121,-6.07964 0.24201,-12.15928 0.36301,-18.23892 -4.03266,6.25489 -8.06533,12.50979 -12.09799,18.76468 -1.20768,-0.36977 -2.41536,-0.73955 -3.62304,-1.10932 z"
             style="font-style:normal;font-variant:normal;font-weight:normal;font-stretch:normal;font-family:Rockwell;-inkscape-font-specification:Rockwell;fill:#263f1f;fill-opacity:1" />
          <path
             inkscape:connector-curvature="0"
             id="path17205"
             d="m 429.65221,292.34816 c -3.52982,0.31912 -9.19513,-3.68772 -10.78395,0.56334 -2.1312,2.89608 -1.95713,3.81839 1.31135,4.49255 0.11427,5.80993 -7.65302,0.70135 -11.08058,1.24073 -0.33484,-3.12785 1.44196,-3.52424 3.84105,-3.09372 3.68676,-6.20409 7.0637,-12.65251 10.63398,-18.94978 -4.38722,1.19974 -3.8189,-5.43083 0.17139,-3.02836 3.60237,0.47616 7.17955,1.16274 10.772,1.72177 0.57844,3.23497 -2.00708,2.84743 -3.72499,2.91239 1.2963,7.06493 2.69107,14.15234 4.02767,21.22673 4.82186,-0.81514 2.87378,6.00686 -1.04826,3.27163 -3.08452,-0.14374 -9.85745,-1.07235 -5.56803,-4.50182 4.48148,2.41691 1.10259,-4.04237 1.44837,-5.85546 z m -0.48514,-3.30627 c -0.83265,-3.57152 -0.72636,-9.26845 -2.14376,-11.51635 -1.38106,3.14495 -5.48907,8.16043 -4.67999,10.39326 2.27458,0.37436 4.54917,0.74873 6.82375,1.12309 z"
             style="font-style:normal;font-variant:normal;font-weight:normal;font-stretch:normal;font-family:Rockwell;-inkscape-font-specification:Rockwell;fill:#263f1f;fill-opacity:1" />
          <path
             inkscape:connector-curvature="0"
             id="path17207"
             d="m 445.89249,300.17778 c 0.415,-6.77767 0.83001,-13.55534 1.24501,-20.33301 -2.84,-0.14832 -6.69153,-1.44012 -5.77848,2.65418 -0.1964,2.08336 0.50436,5.14903 -2.76933,3.80196 -1.6972,-2.1262 -0.34676,-8.31295 0.3523,-10.36277 7.1419,0.43731 14.2838,0.87462 21.4257,1.31193 -1.13582,3.11255 1.46283,10.30363 -2.55372,10.24381 -3.93668,-0.15978 1.59787,-7.69316 -2.64168,-7.15713 -2.1048,-0.069 -5.07515,-1.11639 -4.09652,2.30032 -0.36313,5.93046 -0.72626,11.86093 -1.08939,17.79139 4.07411,-1.8218 5.01884,4.99555 0.67353,3.44067 -3.06866,-0.67558 -10.74662,1.267 -7.86674,-3.88942 0.99777,-0.19542 2.05878,0.31754 3.09932,0.19807 z"
             style="font-style:normal;font-variant:normal;font-weight:normal;font-stretch:normal;font-family:Rockwell;-inkscape-font-specification:Rockwell;fill:#263f1f;fill-opacity:1" />
          <path
             inkscape:connector-curvature="0"
             id="path17209"
             d="m 463.71755,300.88272 c -0.20058,-6.7874 -0.40117,-13.5748 -0.60175,-20.3622 -3.89132,2.17748 -5.41669,-4.52861 -0.96287,-3.36611 6.63853,-0.20866 13.27783,-0.3942 19.91666,-0.59394 0.19241,3.09366 1.34409,11.13522 -3.28472,7.41301 1.89497,-5.77517 -4.6403,-3.43439 -7.93711,-3.68149 -5.48094,-1.85758 -3.65964,6.11611 -2.76251,8.17111 3.11318,0.84621 10.20971,-2.60928 9.5709,2.26983 -2.48415,3.03726 -12.30671,-2.07707 -9.98649,5.032 -0.46813,3.7094 0.23897,6.17199 4.49635,4.86809 3.87131,-0.10007 8.98929,0.97501 7.12009,-4.53603 1.1009,-1.96141 4.97058,-0.26827 3.43756,2.59572 0.36292,3.11276 0.6992,6.2004 -3.37783,5.12808 -6.34733,0.18757 -12.69466,0.37516 -19.04199,0.56273 -0.59125,-3.77732 0.17945,-3.56166 3.41371,-3.5008 z"
             style="font-style:normal;font-variant:normal;font-weight:normal;font-stretch:normal;font-family:Rockwell;-inkscape-font-specification:Rockwell;fill:#263f1f;fill-opacity:1" />
          <path
             inkscape:connector-curvature="0"
             id="path17211"
             d="m 488.04473,299.7704 c -0.75212,-6.74858 -1.50425,-13.49717 -2.25637,-20.24575 -3.42664,2.49922 -6.20481,-3.45898 -1.76954,-3.2634 5.62128,-0.0392 11.81205,-2.67314 17.05912,0.21091 4.78721,3.67154 1.98102,10.42168 -1.92922,12.76029 2.80315,2.8437 3.54064,9.83654 8.47334,8.44706 3.40136,3.89956 -5.63897,5.57108 -6.48203,1.82827 -2.88461,-2.88435 -3.83662,-9.64639 -8.10836,-9.67532 -4.16542,0.29482 -0.19988,6.72492 -0.91061,9.48362 4.7809,-2.30906 4.97195,4.91906 0.0324,3.41587 -2.47993,0.27639 -4.95986,0.55277 -7.43979,0.82916 -0.86174,-3.26053 -0.15734,-3.96779 3.33109,-3.79071 z m 2.67015,-13.0715 c 3.55765,-0.12206 9.99005,-0.59042 8.51349,-5.83202 -1.29807,-3.12713 -10.15128,-3.79123 -9.10988,0.46247 0.23223,1.78264 0.37219,3.58284 0.59639,5.36955 z"
             style="font-style:normal;font-variant:normal;font-weight:normal;font-stretch:normal;font-family:Rockwell;-inkscape-font-specification:Rockwell;fill:#263f1f;fill-opacity:1" />
        </g>
        <g
           id="cap"
           inkscape:label="cap">
          <path
             inkscape:connector-curvature="0"
             id="path11843"
             sodipodi:nodetypes="cccsccc"
             style="fill:url(#linearGradient3713)"
             d="m 83.014,0.045226 c -16.297,1.8e-5 -29.587,3.9224 -29.587,8.7323 v 20.98 c 0,4.81 13.29,8.701 29.587,8.701 16.297,10e-4 29.536,-3.891 29.536,-8.701 v -20.98 c 0,-4.8104 -13.239,-8.7327 -29.536,-8.7328 z" />
          <ellipse
             ry="11.517025"
             rx="30.712067"
             cy="57.451534"
             cx="107.10834"
             id="path3617"
             style="fill:url(#linearGradient3627);stroke-width:8;stroke-linecap:round;stroke-linejoin:round"
             transform="matrix(0.9625,0,0,0.75263,-20.104,-34.572)" />
          <ellipse
             ry="3.2517133"
             rx="3.0274572"
             cy="4.3595386"
             cx="162.92206"
             id="path3520"
             style="fill:none"
             transform="translate(0.03198,-0.60782)" />
          <ellipse
             ry="3.2517133"
             rx="3.0274572"
             cy="4.3595386"
             cx="162.92206"
             id="path3526"
             style="fill:none"
             transform="translate(-159.39,493.09)" />
        </g>
      </g>
    </g>
  </g>
</svg>
